<svg fill="none" height="24" viewBox="0 0 24 24" width="24" xmlns="http://www.w3.org/2000/svg"><path d="m9.35294 16.2001v2.1c0 .557.22311 1.0911.62025 1.4849.39711.3938.93581.6151 1.49741.6151h7.4118c.5616 0 1.1002-.2213 1.4974-.6151.3971-.3938.6202-.9279.6202-1.4849v-12.6c0-.55696-.2231-1.0911-.6202-1.48493-.3972-.39382-.9358-.61507-1.4974-.61507h-7.4118c-.5616 0-1.1003.22125-1.49741.61507-.39714.39383-.62025.92797-.62025 1.48493v2.1m6.35296 4.2h-12.7059m0 0 3.17647 3.15m-3.17647-3.15 3.17647-3.15" stroke="#000" stroke-linecap="round" stroke-linejoin="round" stroke-width="2"/></svg>