<svg width="20" height="18" viewBox="0 0 20 18" fill="none" xmlns="http://www.w3.org/2000/svg">
<path d="M0 1.87891C0 0.980469 0.730469 0.25 1.62891 0.25H18.3711C19.2695 0.25 20 0.980469 20 1.87891C20 2.25391 19.8711 2.61719 19.6328 2.90625L13.125 10.8945V16.4883C13.125 17.1836 12.5586 17.75 11.8633 17.75C11.5781 17.75 11.3008 17.6523 11.0781 17.4766L7.46484 14.6094C7.08984 14.3125 6.875 13.8633 6.875 13.3867V10.8984L0.367188 2.90625C0.128906 2.61719 0 2.25391 0 1.87891ZM2.14844 2.125L8.53906 9.96875C8.67578 10.1367 8.75 10.3438 8.75 10.5625V13.2344L11.25 15.2188V10.5625C11.25 10.3477 11.3242 10.1367 11.4609 9.96875L17.8516 2.125H2.14844Z" fill="white"/>
</svg>
