<svg width="15" height="15" viewBox="0 0 15 15" fill="none" xmlns="http://www.w3.org/2000/svg">
<path d="M10.9167 9.6667H10.2583L10.025 9.4417C11.025 8.27503 11.5417 6.68337 11.2583 4.9917C10.8667 2.67503 8.93334 0.825033 6.6 0.5417C3.075 0.108366 0.108336 3.07503 0.541669 6.60003C0.825003 8.93337 2.675 10.8667 4.99167 11.2584C6.68334 11.5417 8.275 11.025 9.44167 10.025L9.66667 10.2584V10.9167L13.2083 14.4584C13.55 14.8 14.1083 14.8 14.45 14.4584C14.7917 14.1167 14.7917 13.5584 14.45 13.2167L10.9167 9.6667ZM5.91667 9.6667C3.84167 9.6667 2.16667 7.9917 2.16667 5.9167C2.16667 3.8417 3.84167 2.1667 5.91667 2.1667C7.99167 2.1667 9.66667 3.8417 9.66667 5.9167C9.66667 7.9917 7.99167 9.6667 5.91667 9.6667Z" fill="#005047"/>
</svg>
